HIERARCHY
ROOT Hips
{
	OFFSET 0.000000 0.000000 0.000000 
	CHANNELS 6 Xposition Yposition Zposition Zrotation Yrotation Xrotation
	JOINT LeftUpLeg
	{
		OFFSET 1.363060 -1.794630 0.839290 
		CHANNELS 3 Zrotation Yrotation Xrotation
		JOINT LeftLeg
		{
			OFFSET 2.448110 -6.726130 0.000000 
			CHANNELS 3 Zrotation Yrotation Xrotation
			JOINT LeftFoot
			{
				OFFSET 2.562200 -7.039590 0.000000 
				CHANNELS 3 Zrotation Yrotation Xrotation
				JOINT LeftToeBase
				{
					OFFSET 0.157640 -0.433110 2.322550 
					CHANNELS 3 Zrotation Yrotation Xrotation
					End Site
					{
						OFFSET 0.000000 0.000000 0.000000 
					}
				}
			}
		}
	}
	JOINT RightUpLeg
	{
		OFFSET -1.305520 -1.794630 0.839290 
		CHANNELS 3 Zrotation Yrotation Xrotation
		JOINT RightLeg
		{
			OFFSET -2.542530 -6.985550 0.000000 
			CHANNELS 3 Zrotation Yrotation Xrotation
			JOINT RightFoot
			{
				OFFSET -2.568260 -7.056230 0.000000 
				CHANNELS 3 Zrotation Yrotation Xrotation
				JOINT RightToeBase
				{
					OFFSET -0.164730 -0.452590 2.363150 
					CHANNELS 3 Zrotation Yrotation Xrotation
					End Site
					{
						OFFSET 0.000000 0.000000 0.000000 
					}
				}
			}
		}
	}
	JOINT Spine
	{
		OFFSET 0.028270 2.035590 -0.193380 
		CHANNELS 3 Zrotation Yrotation Xrotation
		JOINT Spine1
		{
			OFFSET 0.056720 2.048850 -0.042750 
			CHANNELS 3 Zrotation Yrotation Xrotation
			JOINT Neck1
			{
				OFFSET -0.054170 1.746240 0.172020 
				CHANNELS 3 Zrotation Yrotation Xrotation
				JOINT Head
				{
					OFFSET 0.104070 1.761360 -0.123970 
					CHANNELS 3 Zrotation Yrotation Xrotation
					End Site
					{
						OFFSET 0.000000 0.000000 0.000000 
					}
				}
			}
			JOINT LeftArm
			{
				OFFSET 3.362410 1.200890 -0.311210 
				CHANNELS 3 Zrotation Yrotation Xrotation
				JOINT LeftForeArm
				{
					OFFSET 4.983000 -0.000000 -0.000000 
					CHANNELS 3 Zrotation Yrotation Xrotation
					JOINT LeftHand
					{
						OFFSET 3.483560 -0.000000 -0.000000 
						CHANNELS 3 Zrotation Yrotation Xrotation
						JOINT LeftHandIndex1
						{
							OFFSET 0.715260 -0.000000 -0.000000 
							CHANNELS 3 Zrotation Yrotation Xrotation
							End Site
							{
								OFFSET 0.000000 0.000000 0.000000 
							}
						}
					}
				}
			}
			JOINT RightArm
			{
				OFFSET -3.136600 1.374050 -0.404650 
				CHANNELS 3 Zrotation Yrotation Xrotation
				JOINT RightForeArm
				{
					OFFSET -5.241900 -0.000000 -0.000000 
					CHANNELS 3 Zrotation Yrotation Xrotation
					JOINT RightHand
					{
						OFFSET -3.444170 -0.000000 -0.000000 
						CHANNELS 3 Zrotation Yrotation Xrotation
						JOINT RightHandIndex1
						{
							OFFSET -0.622530 -0.000000 -0.000000 
							CHANNELS 3 Zrotation Yrotation Xrotation
							End Site
							{
								OFFSET 0.000000 0.000000 0.000000 
							}
						}
					}
				}
			}
		}
	}
}
MOTION
Frames: 18
Frame Time: 0.041667
-14.597108 17.910039 -25.831507 0.575931 42.525739 6.046214 -18.032245 0.702783 1.199281 -0.446871 4.035437 11.266025 1.294181 -5.320926 -7.831589 1.311900 -7.255100 -20.473400 15.913880 2.424789 -20.285275 -2.517318 -9.578915 26.688028 0.606652 -6.269580 -5.446532 -0.483100 -4.456900 12.365700 2.536282 -5.447026 -1.251401 8.742084 -2.859422 -3.890943 6.581663 -2.786840 2.038525 1.235300 -1.451600 2.916300 -91.399112 0.663363 2.901942 20.812575 -38.250693 -7.107615 -0.510405 0.443426 30.928254 -7.125000 0.000000 0.000000 82.542645 -1.129729 4.053023 -11.471488 29.194443 -2.886449 -0.732399 -2.004615 -2.561556 7.125000 0.000000 0.000000 
-14.676212 17.914129 -25.939241 0.789035 42.465390 6.346779 -18.289585 0.811486 0.889958 -0.499070 3.780772 10.559033 1.246146 -5.232650 -7.334583 1.266100 -7.132300 -20.107900 15.561990 2.607719 -20.801345 -2.491637 -9.492595 26.482962 0.632053 -6.427211 -5.465936 -0.410300 -4.112000 11.392100 2.346679 -5.176827 -1.240171 8.509589 -2.716238 -3.985456 6.235445 -2.705705 2.373711 1.080800 -1.403300 3.058700 -91.115955 -0.162084 3.657184 21.539372 -38.933289 -7.480704 -0.469889 0.454187 29.380601 -7.125000 0.000000 0.000000 82.915417 -0.992027 7.105028 -12.126612 30.199514 -3.138811 -0.709974 -2.007934 -2.131487 7.125000 0.000000 0.000000 
-14.753821 17.924204 -26.041589 0.775821 42.327001 6.474701 -18.289173 0.958280 0.563210 -0.533926 3.564550 9.960719 1.236091 -5.382267 -6.819418 1.169000 -6.863200 -19.310800 15.439866 2.670017 -21.459159 -2.512690 -9.471839 26.503853 0.630029 -6.375501 -4.798753 -0.570100 -4.835400 13.439700 2.221680 -4.830631 -1.230024 8.289557 -2.537052 -4.094803 5.950056 -2.628804 2.619611 0.958500 -1.360900 3.153400 -90.937753 -0.860599 4.211397 22.418774 -39.733564 -7.940078 -0.443499 0.462523 29.058753 -7.125000 0.000000 0.000000 83.091346 -0.696875 10.101134 -12.443637 30.732413 -3.272073 -0.689587 -1.976963 -2.083167 7.125000 0.000000 0.000000 
-14.833126 17.938369 -26.131866 1.116410 42.112848 6.812652 -18.494082 1.386766 0.066182 -0.544330 3.414304 9.552360 1.257173 -5.796261 -6.206055 1.194600 -6.935200 -19.523500 14.973871 2.602959 -22.066527 -2.526336 -9.418370 26.437123 0.462456 -5.199080 -4.399353 -0.733900 -5.473300 15.263400 2.093000 -4.509022 -1.188537 8.319958 -2.374303 -4.093187 5.570268 -2.416798 2.851509 0.819800 -1.256200 3.253000 -90.881223 -1.393805 4.555348 23.401869 -40.600594 -8.462951 -0.422520 0.464326 29.328132 -7.125000 0.000000 0.000000 83.051595 0.088385 12.902388 -12.282988 30.619228 -3.208662 -0.658716 -1.955005 -1.719828 7.125000 0.000000 0.000000 
-14.912031 17.958619 -26.215360 1.662421 41.865759 7.348389 -18.874781 1.792811 -0.627588 -0.542843 3.349485 9.376036 1.285915 -6.213116 -5.736017 1.314400 -7.261700 -20.492900 14.348510 2.780811 -22.168809 -2.412830 -9.142758 25.601828 0.527379 -5.652161 -3.373068 -1.287500 -7.189900 20.279200 1.933231 -4.235638 -1.158089 8.448060 -2.232005 -4.040285 5.161675 -2.217915 3.296638 0.672400 -1.152100 3.439300 -90.932185 -1.813225 4.858474 24.280004 -41.357953 -8.936866 -0.393504 0.471025 29.129655 -7.125000 0.000000 0.000000 83.087996 0.507011 15.795044 -12.767945 31.334701 -3.390569 -0.593139 -1.963501 -0.929068 7.125000 0.000000 0.000000 
-14.983854 17.979168 -26.304241 1.816589 41.667460 7.639833 -19.026052 1.769419 -1.247953 -0.548813 3.333415 9.325618 1.277541 -6.268347 -5.430513 1.407600 -7.504300 -21.218200 14.084121 2.983728 -22.164369 -2.288328 -8.836641 24.675713 0.512138 -5.544153 -3.119932 -1.442300 -7.592400 21.482600 1.753569 -3.969982 -1.205394 8.264494 -2.090582 -4.160209 4.987606 -2.185916 3.719339 0.601500 -1.125500 3.562300 -90.945139 -1.972700 5.293160 25.123467 -42.074665 -9.399348 -0.360904 0.487538 28.437174 -7.125000 0.000000 0.000000 82.914506 0.822196 19.499256 -13.091705 31.804399 -3.486174 -0.542287 -1.963619 -0.894080 7.125000 0.000000 0.000000 
-15.049791 17.996226 -26.390827 1.493793 41.559996 7.500750 -18.808699 1.565310 -1.641397 -0.558333 3.323301 9.293688 1.243026 -6.110221 -5.117128 1.447400 -7.605200 -21.521300 14.277227 2.894450 -22.262506 -2.226065 -8.683384 24.225922 0.412013 -4.815715 -4.022339 -1.209900 -6.977900 19.649800 1.656367 -3.725949 -1.287816 7.877315 -1.961941 -4.423996 4.515723 -2.261510 4.361586 0.427500 -1.157600 3.729900 -90.878110 -1.755357 5.771224 26.056829 -42.856635 -9.922708 -0.329927 0.498122 28.089252 -7.125000 0.000000 0.000000 83.147292 0.833409 21.522857 -13.704138 32.637862 -3.737028 -0.482885 -1.953452 0.503949 7.125000 0.000000 0.000000 
-15.114831 18.011489 -26.467339 1.123427 41.508995 7.235314 -18.505260 1.499170 -1.930477 -0.562363 3.315542 9.274116 1.219117 -6.014580 -4.830345 1.456200 -7.627300 -21.587700 14.554228 2.612087 -22.337383 -2.197476 -8.637737 24.088741 0.266656 -3.897963 -5.746197 -0.784900 -5.655900 15.789300 1.614884 -3.504480 -1.336301 7.557224 -1.847654 -4.658167 4.446544 -2.028800 4.181334 0.418400 -1.051800 3.598000 -90.855041 -1.391945 6.276639 26.927192 -43.574376 -10.416493 -0.301621 0.509502 27.722287 -7.125000 0.000000 0.000000 83.539955 0.726367 22.974630 -14.498253 33.671052 -4.074398 -0.439466 -1.944163 2.514655 7.125000 0.000000 0.000000 
-15.177377 18.025853 -26.538563 1.010043 41.324076 7.073156 -18.466436 1.345827 -2.082656 -0.569489 3.308852 9.253546 1.182354 -5.824571 -4.600355 1.446200 -7.602300 -21.512500 14.651742 2.266958 -22.450812 -2.219370 -8.723015 24.344027 0.251965 -3.919442 -6.687513 -0.693600 -5.324000 14.835100 1.543152 -3.225322 -1.298736 7.363441 -1.711868 -4.788430 3.813713 -1.883265 5.012490 0.160300 -0.968100 3.937600 -90.897995 -1.091664 6.879477 27.616885 -44.136625 -10.805371 -0.278780 0.520808 27.233594 -7.125000 0.000000 0.000000 83.724326 0.987180 24.818086 -14.966177 34.273086 -4.258635 -0.436903 -1.936506 3.596178 7.125000 0.000000 0.000000 
-15.236232 18.039719 -26.602905 0.927018 41.004067 6.841713 -18.482372 1.103198 -2.084363 -0.576618 3.307626 9.247400 1.141486 -5.601317 -4.398940 1.401900 -7.489700 -21.174400 14.769799 2.020176 -22.498351 -2.316844 -8.988392 25.151562 0.271818 -4.195030 -7.551434 -0.642900 -5.129400 14.278100 1.528954 -2.896087 -1.178367 7.306218 -1.560157 -4.804747 3.461115 -1.739411 5.297230 0.037500 -0.900400 4.055400 -91.040821 -0.848567 7.447516 28.138379 -44.557205 -11.092716 -0.264227 0.524334 27.035622 -7.125000 0.000000 0.000000 83.561217 1.970114 26.963894 -14.675745 33.943781 -4.102430 -0.443963 -1.934539 2.729321 7.125000 0.000000 0.000000 
-15.293191 18.050492 -26.660064 0.585334 40.701010 6.466543 -18.253487 0.824354 -2.084957 -0.589333 3.304357 9.233441 1.074054 -5.158636 -4.219203 1.365100 -7.394900 -20.890700 15.160823 1.915284 -22.627498 -2.515196 -9.460023 26.620437 0.334746 -4.772149 -8.464912 -0.645400 -5.139200 14.306000 1.576341 -2.582003 -1.060542 7.220499 -1.413938 -4.792763 3.202953 -1.479068 5.169699 -0.040800 -0.785100 4.000800 -91.159926 -0.557747 7.937563 28.449209 -44.814342 -11.259515 -0.255490 0.527787 26.914358 -7.125000 0.000000 0.000000 83.648760 2.271909 28.143385 -15.274824 34.691157 -4.349519 -0.378076 -1.951376 1.906514 7.125000 0.000000 0.000000 
-15.352744 18.059770 -26.713232 0.147773 40.510120 6.068303 -17.878573 0.655541 -2.199059 -0.601368 3.306976 9.232722 1.006215 -4.692030 -4.076440 1.425700 -7.550400 -21.356600 15.619901 1.826134 -22.822069 -2.779565 -10.021925 28.411605 0.402182 -5.359092 -9.301367 -0.701400 -5.353100 14.918400 1.637112 -2.350626 -0.952731 7.088003 -1.313348 -4.781088 3.093217 -1.444926 5.426769 -0.038300 -0.772100 4.087600 -91.255178 -0.239410 8.358739 28.436945 -44.827193 -11.236732 -0.244993 0.534751 26.584350 -7.125000 0.000000 0.000000 83.764293 2.630659 29.540573 -15.884589 35.427075 -4.589256 -0.321680 -1.985386 0.891347 7.125000 0.000000 0.000000 
-15.413993 18.066852 -26.759818 0.161742 40.439417 5.919024 -17.820849 0.777446 -2.389142 -0.596595 3.321613 9.277401 0.996179 -4.676054 -3.875614 1.498600 -7.732700 -21.905100 15.615891 1.641020 -22.868989 -3.062024 -10.581795 30.211650 0.425742 -5.661348 -10.055789 -0.868800 -5.943200 16.619600 1.629551 -2.211238 -0.844744 7.088131 -1.250262 -4.743155 3.818387 -1.693776 4.023480 0.250300 -0.917600 3.431600 -91.428671 -0.013256 8.573346 28.104943 -44.593497 -11.026238 -0.240407 0.537183 26.541025 -7.125000 0.000000 0.000000 83.869103 3.020529 30.738019 -16.415722 36.052732 -4.800537 -0.271334 -2.015268 0.029660 7.125000 0.000000 0.000000 
-15.469955 18.068548 -26.797624 0.417037 40.431394 5.994945 -17.985020 0.770497 -2.552162 -0.594016 3.333928 9.310634 0.981389 -4.660293 -3.599310 1.467900 -7.656400 -21.675400 15.369674 1.364940 -22.887674 -3.371055 -11.141751 32.053691 0.418273 -5.763893 -10.723360 -0.954100 -6.220100 17.424400 1.581996 -2.157460 -0.797314 7.207603 -1.229089 -4.745199 1.753743 -0.996455 7.403554 -0.526100 -0.542000 4.463700 -91.665511 0.333900 8.775763 27.511903 -44.156534 -10.660881 -0.244477 0.541861 26.207990 -7.125000 0.000000 0.000000 84.027002 3.263918 31.404168 -16.855081 36.587882 -4.995826 -0.227587 -2.025100 -0.457675 7.125000 0.000000 0.000000 
-15.522925 18.062463 -26.829446 0.397502 40.686245 6.131056 -17.884074 0.400430 -2.873688 -0.593679 3.380125 9.434302 0.951488 -4.532162 -3.241882 1.411800 -7.515100 -21.250600 15.392828 0.989983 -23.092567 -3.700436 -11.685424 33.896356 0.447861 -6.056302 -11.222823 -0.860500 -5.915300 16.538800 1.607094 -2.181066 -0.833035 7.222256 -1.247217 -4.618301 1.817657 -1.019448 7.280275 -0.495200 -0.554400 4.385500 -91.898624 0.572736 8.856298 26.342845 -43.251933 -9.974401 -0.256206 0.544357 25.664112 -7.125000 0.000000 0.000000 84.221293 3.416115 31.784510 -17.225622 37.027704 -5.166684 -0.192824 -2.026766 -0.759762 7.125000 0.000000 0.000000 
-15.579884 18.051490 -26.858075 0.277449 41.245521 6.388524 -17.609420 -0.062323 -3.493191 -0.581041 3.485706 9.719686 0.966765 -4.686126 -2.923146 1.381600 -7.437700 -21.018700 15.517729 0.467480 -23.421546 -4.025113 -12.183647 35.631624 0.529848 -6.636955 -11.638549 -0.830000 -5.812400 16.241000 1.664512 -2.332242 -0.939448 7.225392 -1.325986 -4.468175 1.814048 -1.032647 7.333482 -0.480000 -0.562400 4.381800 -92.141295 0.459876 8.540963 24.320365 -41.582369 -8.843178 -0.281315 0.532194 25.714518 -7.125000 0.000000 0.000000 84.369693 3.508229 32.163826 -17.543048 37.396329 -5.311164 -0.169689 -2.028093 -1.223619 7.125000 0.000000 0.000000 
-15.624574 18.049096 -26.875732 0.278476 41.572648 6.385388 -17.503638 -0.311530 -3.621983 -0.583050 3.499176 9.756699 0.980748 -4.740027 -3.045490 1.565000 -7.894300 -22.393600 15.582488 -0.157100 -23.105887 -4.287744 -12.605207 37.030629 0.608896 -7.161698 -11.891286 -0.868400 -5.941900 16.616000 1.684826 -2.389951 -0.956593 7.226150 -1.361039 -4.383582 1.964356 -1.070494 6.795992 -0.458000 -0.587700 4.630100 -92.439751 1.014400 7.908241 23.608587 -40.964242 -8.449651 -0.320170 0.504399 27.412298 -7.125000 0.000000 0.000000 84.481191 3.514629 32.520289 -17.776215 37.662846 -5.416151 -0.157015 -2.025787 -1.743737 7.125000 0.000000 0.000000 
-15.643029 18.061665 -26.876330 0.310922 41.321870 5.880714 -17.567880 -0.153464 -2.911472 -0.607295 3.354211 9.372804 0.941496 -4.430892 -3.287085 1.708900 -8.231500 -23.419500 15.670202 -0.702447 -21.728083 -4.428047 -12.895201 37.830599 0.648699 -7.354783 -11.679579 -0.879000 -5.977100 16.718000 1.621916 -2.179977 -0.773675 7.095353 -1.281724 -4.253590 1.933042 -1.040554 6.828979 -0.451600 -0.575400 4.601100 -92.637099 1.580784 7.364459 22.745199 -40.201091 -7.987565 -0.359854 0.485818 28.495901 -7.125000 0.000000 0.000000 84.665881 3.471546 32.650265 -17.897516 37.807099 -5.472736 -0.155174 -2.026285 -1.913715 7.125000 0.000000 0.000000 
